<svg xmlns="http://www.w3.org/2000/svg" xmlns:xlink="http://www.w3.org/1999/xlink" width="150" zoomAndPan="magnify" viewBox="0 0 112.5 112.499997" height="150" preserveAspectRatio="xMidYMid meet" version="1.0"><defs><g/><clipPath id="6ae04fe51e"><path d="M 20.542969 3.355469 L 91.792969 3.355469 L 91.792969 98.605469 L 20.542969 98.605469 Z M 20.542969 3.355469 " clip-rule="nonzero"/></clipPath><clipPath id="bce4e396d9"><path d="M 57.8125 49.875 L 64.546875 49.875 L 64.546875 52.976562 L 57.8125 52.976562 Z M 57.8125 49.875 " clip-rule="nonzero"/></clipPath><clipPath id="20cf80c1dc"><path d="M 51.046875 49.746094 L 58 49.746094 L 58 53 L 51.046875 53 Z M 51.046875 49.746094 " clip-rule="nonzero"/></clipPath><clipPath id="aa81f0a121"><path d="M 57 49.746094 L 59 49.746094 L 59 52 L 57 52 Z M 57 49.746094 " clip-rule="nonzero"/></clipPath><clipPath id="cd4017ebf4"><path d="M 57.644531 51.117188 L 57.953125 51.117188 L 57.953125 62.496094 L 57.644531 62.496094 Z M 57.644531 51.117188 " clip-rule="nonzero"/></clipPath><clipPath id="68fe38323f"><path d="M 51.046875 51 L 55 51 L 55 53 L 51.046875 53 Z M 51.046875 51 " clip-rule="nonzero"/></clipPath></defs><path fill="#356874" d="M 57.84375 34.34375 C 54.386719 34.34375 51.582031 38.308594 51.582031 43.199219 C 51.582031 44.90625 51.925781 46.5 52.515625 47.851562 C 53.242188 44.667969 55.351562 42.367188 57.84375 42.367188 C 60.335938 42.367188 62.445312 44.667969 63.175781 47.851562 C 63.765625 46.5 64.105469 44.90625 64.105469 43.199219 C 64.105469 38.308594 61.304688 34.34375 57.84375 34.34375 " fill-opacity="1" fill-rule="nonzero"/><path fill="#356874" d="M 49.902344 65.652344 C 49.566406 65.242188 49.246094 64.820312 48.953125 64.382812 C 48.660156 63.945312 48.378906 63.503906 48.125 63.042969 C 47.867188 62.585938 47.625 62.121094 47.410156 61.644531 C 47.195312 61.167969 46.984375 60.6875 46.800781 60.199219 C 46.429688 59.222656 46.128906 58.21875 45.886719 57.207031 C 45.636719 56.191406 45.4375 55.164062 45.292969 54.128906 C 45.222656 53.613281 45.160156 53.09375 45.117188 52.570312 C 45.070312 52.050781 45.039062 51.527344 45.03125 51.003906 C 45.019531 50.480469 45.027344 49.957031 45.039062 49.433594 C 45.050781 48.914062 45.074219 48.390625 45.089844 47.871094 C 45.101562 47.472656 45.117188 47.078125 45.125 46.679688 C 45.132812 46.683594 45.140625 46.683594 45.144531 46.6875 C 45.308594 46.734375 45.472656 46.785156 45.632812 46.839844 C 45.796875 46.894531 45.953125 46.957031 46.117188 47.015625 C 46.28125 47.078125 46.441406 47.144531 46.601562 47.214844 C 46.757812 47.289062 46.921875 47.355469 47.078125 47.433594 C 47.238281 47.507812 47.394531 47.59375 47.554688 47.671875 C 47.710938 47.757812 47.871094 47.839844 48.027344 47.933594 C 48.183594 48.019531 48.339844 48.117188 48.492188 48.214844 C 48.648438 48.308594 48.804688 48.414062 48.957031 48.515625 C 49.109375 48.625 49.269531 48.726562 49.417969 48.839844 L 49.652344 49.011719 C 49.726562 49.070312 49.800781 49.128906 49.878906 49.183594 C 50.035156 49.300781 50.179688 49.425781 50.335938 49.550781 C 50.496094 49.671875 50.640625 49.804688 50.800781 49.929688 L 51.082031 49.753906 C 51.03125 49.550781 50.96875 49.355469 50.90625 49.15625 C 50.832031 48.960938 50.761719 48.761719 50.675781 48.574219 C 50.59375 48.378906 50.5 48.191406 50.402344 48.003906 C 50.308594 47.816406 50.195312 47.636719 50.089844 47.453125 C 49.976562 47.273438 49.859375 47.097656 49.734375 46.921875 C 49.609375 46.75 49.480469 46.578125 49.339844 46.414062 C 49.207031 46.242188 49.058594 46.089844 48.914062 45.925781 C 48.765625 45.769531 48.613281 45.613281 48.453125 45.46875 C 48.292969 45.320312 48.128906 45.175781 47.960938 45.039062 C 47.789062 44.902344 47.617188 44.765625 47.4375 44.640625 C 47.261719 44.507812 47.078125 44.386719 46.890625 44.273438 C 46.703125 44.152344 46.511719 44.042969 46.316406 43.9375 C 46.121094 43.832031 45.921875 43.734375 45.71875 43.640625 C 45.519531 43.542969 45.3125 43.457031 45.101562 43.375 C 44.886719 43.296875 44.671875 43.222656 44.449219 43.15625 C 44.335938 43.121094 44.222656 43.089844 44.105469 43.058594 L 43.921875 43.015625 L 43.824219 42.996094 L 43.769531 42.988281 L 43.691406 42.976562 L 42.078125 42.71875 L 41.835938 44.46875 L 41.804688 44.710938 C 41.792969 44.785156 41.785156 44.859375 41.777344 44.933594 L 41.734375 45.363281 C 41.710938 45.652344 41.695312 45.9375 41.683594 46.222656 C 41.664062 46.792969 41.679688 47.359375 41.710938 47.925781 C 41.746094 48.492188 41.8125 49.058594 41.886719 49.617188 C 41.957031 50.179688 42.050781 50.738281 42.144531 51.296875 C 42.246094 51.851562 42.347656 52.40625 42.457031 52.960938 C 42.570312 53.515625 42.6875 54.066406 42.824219 54.613281 C 43.089844 55.707031 43.414062 56.792969 43.800781 57.851562 C 44.199219 58.910156 44.65625 59.945312 45.1875 60.945312 C 45.710938 61.941406 46.324219 62.894531 47.007812 63.789062 C 47.34375 64.238281 47.707031 64.667969 48.085938 65.082031 C 48.464844 65.496094 48.867188 65.882812 49.28125 66.253906 C 49.695312 66.628906 50.132812 66.972656 50.578125 67.296875 C 51.027344 67.621094 51.503906 67.917969 51.964844 68.191406 L 52.160156 67.917969 C 51.738281 67.566406 51.347656 67.214844 50.972656 66.832031 C 50.601562 66.449219 50.234375 66.0625 49.902344 65.652344 " fill-opacity="1" fill-rule="nonzero"/><path fill="#356874" d="M 74.003906 46.222656 C 73.996094 45.9375 73.980469 45.652344 73.957031 45.363281 L 73.914062 44.933594 C 73.90625 44.859375 73.898438 44.785156 73.886719 44.710938 L 73.855469 44.46875 L 73.613281 42.71875 L 71.996094 42.976562 L 71.921875 42.988281 L 71.867188 42.996094 L 71.765625 43.015625 L 71.582031 43.058594 C 71.464844 43.089844 71.351562 43.121094 71.242188 43.15625 C 71.015625 43.222656 70.800781 43.296875 70.589844 43.375 C 70.378906 43.457031 70.171875 43.542969 69.96875 43.640625 C 69.765625 43.734375 69.566406 43.832031 69.371094 43.9375 C 69.175781 44.042969 68.984375 44.152344 68.800781 44.273438 C 68.613281 44.386719 68.429688 44.507812 68.25 44.640625 C 68.074219 44.765625 67.898438 44.902344 67.730469 45.039062 C 67.558594 45.175781 67.394531 45.320312 67.238281 45.46875 C 67.078125 45.613281 66.925781 45.769531 66.777344 45.925781 C 66.628906 46.089844 66.480469 46.242188 66.347656 46.414062 C 66.210938 46.578125 66.082031 46.75 65.957031 46.921875 C 65.832031 47.097656 65.714844 47.273438 65.601562 47.453125 C 65.492188 47.636719 65.382812 47.816406 65.285156 48.003906 C 65.191406 48.191406 65.097656 48.378906 65.015625 48.574219 C 64.925781 48.761719 64.859375 48.960938 64.785156 49.15625 C 64.71875 49.355469 64.660156 49.550781 64.605469 49.753906 L 64.886719 49.929688 C 65.050781 49.804688 65.195312 49.671875 65.351562 49.550781 C 65.507812 49.425781 65.65625 49.300781 65.8125 49.183594 C 65.890625 49.128906 65.964844 49.070312 66.039062 49.011719 L 66.269531 48.839844 C 66.421875 48.726562 66.578125 48.625 66.730469 48.515625 C 66.886719 48.414062 67.039062 48.308594 67.195312 48.214844 C 67.351562 48.117188 67.503906 48.019531 67.664062 47.933594 C 67.820312 47.839844 67.980469 47.757812 68.132812 47.671875 C 68.296875 47.59375 68.449219 47.507812 68.613281 47.433594 C 68.769531 47.355469 68.933594 47.289062 69.089844 47.214844 C 69.25 47.144531 69.410156 47.078125 69.574219 47.015625 C 69.734375 46.957031 69.894531 46.894531 70.058594 46.839844 C 70.21875 46.785156 70.382812 46.734375 70.542969 46.6875 C 70.550781 46.683594 70.558594 46.683594 70.5625 46.679688 C 70.574219 47.078125 70.585938 47.472656 70.601562 47.871094 C 70.617188 48.390625 70.640625 48.914062 70.652344 49.433594 C 70.664062 49.957031 70.671875 50.480469 70.660156 51.003906 C 70.648438 51.527344 70.617188 52.050781 70.574219 52.570312 C 70.527344 53.09375 70.464844 53.613281 70.394531 54.128906 C 70.253906 55.164062 70.050781 56.191406 69.804688 57.207031 C 69.558594 58.21875 69.257812 59.222656 68.886719 60.199219 C 68.703125 60.6875 68.496094 61.167969 68.28125 61.644531 C 68.0625 62.121094 67.824219 62.585938 67.566406 63.042969 C 67.3125 63.503906 67.03125 63.945312 66.734375 64.382812 C 66.441406 64.820312 66.121094 65.242188 65.789062 65.652344 C 65.453125 66.0625 65.089844 66.449219 64.71875 66.832031 C 64.34375 67.214844 63.953125 67.566406 63.53125 67.917969 L 63.722656 68.191406 C 64.1875 67.917969 64.664062 67.621094 65.109375 67.296875 C 65.558594 66.972656 65.996094 66.628906 66.410156 66.253906 C 66.824219 65.882812 67.226562 65.496094 67.605469 65.082031 C 67.980469 64.667969 68.34375 64.238281 68.683594 63.789062 C 69.367188 62.894531 69.976562 61.941406 70.503906 60.945312 C 71.035156 59.945312 71.492188 58.910156 71.890625 57.851562 C 72.277344 56.792969 72.601562 55.707031 72.867188 54.613281 C 73.003906 54.066406 73.121094 53.515625 73.234375 52.960938 C 73.34375 52.40625 73.445312 51.851562 73.542969 51.296875 C 73.636719 50.738281 73.730469 50.179688 73.804688 49.617188 C 73.878906 49.058594 73.945312 48.492188 73.976562 47.925781 C 74.011719 47.359375 74.027344 46.792969 74.003906 46.222656 " fill-opacity="1" fill-rule="nonzero"/><path fill="#72af93" d="M 77.957031 80.964844 C 76.363281 79.53125 73.984375 77.335938 72.550781 75.730469 C 70.90625 73.890625 66.132812 70.496094 63.570312 68.957031 C 63.613281 69.34375 63.734375 70.207031 63.734375 70.609375 C 63.734375 72.585938 63.199219 74.394531 62.3125 75.792969 C 65.808594 77.089844 67.492188 78.320312 68.414062 78.953125 C 68.742188 79.175781 68.632812 79.683594 68.242188 79.75 C 61.449219 80.9375 48.703125 83.828125 48.703125 83.828125 L 75.421875 83.828125 C 76.171875 83.828125 76.914062 83.667969 77.597656 83.355469 C 78.539062 82.921875 78.730469 81.660156 77.957031 80.964844 " fill-opacity="1" fill-rule="nonzero"/><path fill="#72af93" d="M 63.582031 80.371094 C 63.582031 80.371094 60.8125 78.121094 46.890625 79.675781 C 46.429688 79.726562 46.210938 79.117188 46.601562 78.867188 C 46.972656 78.628906 47.371094 78.367188 47.769531 78.109375 C 48.890625 77.375 50.164062 76.90625 51.492188 76.738281 C 52.050781 76.664062 52.628906 76.574219 53.707031 76.269531 C 52.625 74.824219 51.957031 72.820312 51.957031 70.609375 C 51.957031 70.09375 51.992188 69.59375 52.0625 69.105469 C 50.273438 70.027344 46.339844 72.171875 44.074219 74.332031 C 43.152344 75.214844 42.140625 75.988281 41.070312 76.679688 C 38.882812 78.085938 35.515625 80.601562 35.507812 82.703125 C 35.496094 87.375 61.898438 79.84375 63.582031 80.371094 " fill-opacity="1" fill-rule="nonzero"/><path fill="#72af93" d="M 60.691406 64.296875 C 61.085938 63 60.628906 61.679688 59.59375 61.265625 C 58.492188 60.824219 57.152344 61.578125 56.605469 62.957031 C 56.542969 63.109375 56.496094 63.261719 56.460938 63.414062 C 56.902344 63.25 57.367188 63.160156 57.84375 63.160156 C 58.890625 63.160156 59.863281 63.578125 60.691406 64.296875 " fill-opacity="1" fill-rule="nonzero"/><path fill="#72af93" d="M 57.84375 77.703125 C 60.617188 77.703125 62.863281 74.527344 62.863281 70.609375 C 62.863281 66.6875 60.617188 63.511719 57.84375 63.511719 C 55.074219 63.511719 52.828125 66.6875 52.828125 70.609375 C 52.828125 74.527344 55.074219 77.703125 57.84375 77.703125 " fill-opacity="1" fill-rule="nonzero"/><path fill="#1f6f8b" d="M 40.222656 33.109375 C 43.210938 32.441406 47.28125 31.042969 52.796875 28.351562 C 52.796875 28.351562 45.8125 34.824219 36.621094 35.179688 C 37.851562 36.15625 44.046875 40.269531 53.574219 33.074219 C 64.257812 25.003906 69.632812 26.644531 69.632812 26.644531 C 58.058594 20.371094 50.445312 20.34375 45.46875 22.613281 C 44.789062 28.269531 42.398438 31.398438 40.222656 33.109375 " fill-opacity="1" fill-rule="nonzero"/><g clip-path="url(#6ae04fe51e)"><path fill="#1f6f8b" d="M 91.761719 62.566406 C 91.753906 62.253906 91.746094 62.09375 91.746094 62.09375 C 91.746094 62.09375 91.695312 62.734375 91.597656 63.9375 C 91.457031 65.132812 91.234375 66.882812 90.703125 69.050781 C 90.171875 71.214844 89.285156 73.777344 87.902344 76.519531 C 86.519531 79.261719 84.570312 82.152344 81.992188 84.867188 C 79.402344 87.558594 76.164062 90.058594 72.359375 91.9375 C 68.566406 93.820312 64.203125 95.054688 59.621094 95.351562 C 59.335938 95.367188 59.050781 95.386719 58.761719 95.40625 C 58.472656 95.414062 58.183594 95.410156 57.894531 95.417969 C 57.605469 95.421875 57.316406 95.421875 57.027344 95.425781 C 56.738281 95.417969 56.449219 95.40625 56.15625 95.398438 C 55.851562 95.386719 55.546875 95.375 55.242188 95.363281 C 54.957031 95.339844 54.671875 95.316406 54.386719 95.289062 C 54.101562 95.261719 53.820312 95.242188 53.53125 95.210938 C 53.242188 95.171875 52.949219 95.132812 52.660156 95.089844 C 50.328125 94.761719 48.007812 94.179688 45.753906 93.355469 C 43.5 92.535156 41.335938 91.425781 39.289062 90.121094 C 37.246094 88.8125 35.339844 87.273438 33.617188 85.546875 C 30.179688 82.089844 27.5 77.878906 25.84375 73.359375 C 25.746094 73.074219 25.648438 72.789062 25.550781 72.507812 C 25.453125 72.222656 25.351562 71.941406 25.273438 71.652344 C 25.191406 71.363281 25.109375 71.078125 25.027344 70.789062 C 24.984375 70.644531 24.941406 70.503906 24.902344 70.359375 L 24.800781 69.921875 C 24.664062 69.339844 24.507812 68.765625 24.410156 68.179688 C 24.355469 67.886719 24.300781 67.59375 24.246094 67.304688 C 24.191406 67.011719 24.164062 66.71875 24.117188 66.425781 C 23.792969 64.082031 23.71875 61.742188 23.863281 59.417969 C 23.882812 59.136719 23.890625 58.855469 23.917969 58.574219 C 23.949219 58.289062 23.980469 58.003906 24.015625 57.71875 C 24.046875 57.4375 24.070312 57.152344 24.113281 56.871094 C 24.160156 56.589844 24.207031 56.308594 24.253906 56.03125 C 24.300781 55.75 24.335938 55.46875 24.394531 55.195312 C 24.457031 54.917969 24.515625 54.644531 24.574219 54.371094 C 24.636719 54.097656 24.679688 53.820312 24.753906 53.550781 C 24.824219 53.28125 24.898438 53.011719 24.96875 52.742188 C 25.542969 50.59375 26.332031 48.550781 27.261719 46.644531 C 29.128906 42.824219 31.617188 39.574219 34.300781 36.96875 C 34.964844 36.328125 36.523438 35.011719 36.523438 35.011719 C 36.964844 34.652344 37.410156 34.316406 37.851562 33.988281 C 40.46875 32.496094 44.230469 28.832031 44.289062 20.074219 C 44.375 6.648438 48.933594 3.355469 48.933594 3.355469 C 23.011719 15.117188 31.457031 29.804688 34.503906 33.871094 C 36.207031 31.378906 38.300781 26.683594 40.078125 17.835938 C 40.078125 17.835938 40.785156 25.347656 37.222656 32.324219 C 35.789062 33.222656 34.351562 34.265625 32.941406 35.46875 C 31.445312 36.761719 29.992188 38.246094 28.632812 39.90625 C 27.277344 41.566406 26.027344 43.417969 24.929688 45.429688 C 23.835938 47.441406 22.914062 49.625 22.203125 51.933594 C 22.113281 52.222656 22.027344 52.515625 21.941406 52.804688 C 21.847656 53.09375 21.789062 53.394531 21.710938 53.691406 C 21.636719 53.988281 21.566406 54.285156 21.492188 54.582031 C 21.417969 54.882812 21.371094 55.1875 21.308594 55.488281 C 21.25 55.792969 21.191406 56.097656 21.132812 56.402344 C 21.078125 56.707031 21.042969 57.015625 20.996094 57.324219 C 20.953125 57.632812 20.910156 57.941406 20.867188 58.253906 C 20.828125 58.5625 20.804688 58.886719 20.777344 59.207031 C 20.542969 61.683594 20.578125 64.273438 20.882812 66.847656 C 20.925781 67.167969 20.953125 67.496094 21.003906 67.816406 C 21.058594 68.136719 21.113281 68.457031 21.167969 68.78125 C 21.261719 69.429688 21.417969 70.066406 21.554688 70.707031 L 21.664062 71.191406 C 21.703125 71.351562 21.75 71.507812 21.792969 71.667969 C 21.878906 71.984375 21.96875 72.300781 22.054688 72.621094 C 22.136719 72.941406 22.246094 73.253906 22.351562 73.566406 C 22.453125 73.882812 22.558594 74.195312 22.664062 74.511719 C 24.414062 79.527344 27.367188 84.191406 31.152344 88.023438 C 34.96875 91.824219 39.613281 94.789062 44.609375 96.546875 C 47.101562 97.433594 49.671875 98.023438 52.238281 98.332031 C 52.558594 98.371094 52.878906 98.40625 53.199219 98.445312 C 53.527344 98.472656 53.855469 98.488281 54.183594 98.511719 C 54.511719 98.535156 54.835938 98.554688 55.160156 98.574219 C 55.46875 98.578125 55.773438 98.585938 56.078125 98.589844 L 56.535156 98.597656 L 56.761719 98.601562 L 57.03125 98.601562 C 57.347656 98.589844 57.667969 98.574219 57.980469 98.5625 C 58.296875 98.550781 58.613281 98.542969 58.925781 98.523438 C 59.238281 98.492188 59.554688 98.464844 59.863281 98.4375 C 64.863281 97.988281 69.558594 96.464844 73.566406 94.265625 C 75.566406 93.167969 77.410156 91.914062 79.0625 90.546875 C 80.71875 89.183594 82.191406 87.726562 83.484375 86.222656 C 86.046875 83.195312 87.890625 80.035156 89.117188 77.089844 C 90.355469 74.140625 91.023438 71.433594 91.382812 69.1875 C 91.746094 66.941406 91.765625 65.152344 91.796875 63.945312 C 91.789062 63.339844 91.769531 62.878906 91.761719 62.566406 " fill-opacity="1" fill-rule="nonzero"/></g><g clip-path="url(#bce4e396d9)"><path fill="#6bb1d1" d="M 57.816406 51.636719 L 59.066406 51.636719 C 59.066406 51.636719 59.320312 51.339844 59.359375 51.109375 C 59.359375 51.109375 59.15625 50.863281 59.3125 50.4375 C 59.472656 50.011719 59.96875 49.75 60.734375 49.9375 C 61.5 50.128906 61.921875 50.601562 62.160156 50.816406 C 62.398438 51.027344 63.023438 51.714844 63.707031 52.019531 C 64.289062 52.277344 64.546875 52.335938 64.546875 52.335938 C 64.546875 52.335938 64.425781 52.597656 63.925781 52.535156 C 63.925781 52.535156 63.867188 52.726562 63.34375 52.730469 C 63.34375 52.730469 63.207031 52.902344 62.730469 52.875 C 62.730469 52.875 62.46875 52.988281 62.066406 52.945312 C 62.066406 52.945312 61.773438 53.042969 61.160156 52.824219 C 60.542969 52.601562 59.984375 52.210938 59.984375 52.210938 C 59.984375 52.210938 59.925781 52.429688 59.714844 52.574219 C 59.445312 52.753906 58.960938 52.699219 58.632812 52.667969 C 58.304688 52.636719 57.816406 52.453125 57.816406 52.453125 L 57.816406 51.636719 " fill-opacity="1" fill-rule="nonzero"/></g><path fill="#0c2933" d="M 61.507812 51.355469 C 61.265625 52.035156 60.492188 52.050781 59.917969 51.90625 C 59.871094 51.894531 59.890625 51.824219 59.9375 51.832031 C 60.46875 51.964844 61.207031 51.972656 61.4375 51.335938 C 61.453125 51.289062 61.523438 51.308594 61.507812 51.355469 " fill-opacity="1" fill-rule="nonzero"/><path fill="#0c2933" d="M 63.925781 52.535156 C 63.925781 52.535156 63.917969 52.558594 63.878906 52.59375 C 63.800781 52.578125 63.722656 52.558594 63.671875 52.542969 C 63.199219 52.398438 62.859375 52.257812 62.371094 52.003906 C 62.085938 51.851562 61.707031 51.582031 61.449219 51.375 L 61.492188 51.316406 C 61.75 51.519531 62.121094 51.785156 62.402344 51.933594 C 62.886719 52.1875 63.222656 52.328125 63.691406 52.46875 C 63.75 52.484375 63.835938 52.511719 63.925781 52.535156 " fill-opacity="1" fill-rule="nonzero"/><path fill="#0c2933" d="M 63.34375 52.730469 C 63.339844 52.734375 63.316406 52.761719 63.261719 52.789062 C 62.789062 52.6875 62.441406 52.574219 61.941406 52.363281 C 61.59375 52.214844 61.226562 51.980469 61.039062 51.855469 L 61.078125 51.789062 C 61.265625 51.914062 61.628906 52.148438 61.972656 52.292969 C 62.472656 52.503906 62.816406 52.617188 63.296875 52.71875 C 63.308594 52.722656 63.324219 52.726562 63.34375 52.730469 " fill-opacity="1" fill-rule="nonzero"/><path fill="#0c2933" d="M 62.726562 52.878906 C 62.710938 52.886719 62.664062 52.902344 62.589844 52.921875 C 62.1875 52.808594 61.867188 52.6875 61.425781 52.480469 C 61.164062 52.355469 60.886719 52.191406 60.585938 51.96875 L 60.628906 51.90625 C 60.925781 52.125 61.195312 52.289062 61.457031 52.410156 C 61.933594 52.636719 62.273438 52.761719 62.726562 52.878906 " fill-opacity="1" fill-rule="nonzero"/><path fill="#0c2933" d="M 62.054688 52.949219 C 62.03125 52.957031 61.96875 52.96875 61.867188 52.96875 C 61.613281 52.882812 61.371094 52.78125 61.070312 52.640625 C 60.816406 52.523438 60.335938 52.203125 60.046875 52.003906 C 60.003906 51.972656 59.960938 51.941406 59.925781 51.917969 C 59.917969 51.910156 59.910156 51.90625 59.90625 51.902344 L 59.945312 51.839844 C 60.183594 52.011719 60.800781 52.433594 61.101562 52.574219 C 61.464844 52.742188 61.746094 52.855469 62.054688 52.949219 " fill-opacity="1" fill-rule="nonzero"/><path fill="#0c2933" d="M 60.050781 52.253906 C 60.011719 52.230469 59.988281 52.210938 59.984375 52.210938 C 60 52.132812 59.996094 52.023438 59.925781 51.917969 C 59.925781 51.914062 59.925781 51.914062 59.925781 51.914062 L 59.984375 51.871094 C 60.015625 51.914062 60.035156 51.960938 60.046875 52.003906 C 60.074219 52.097656 60.066406 52.1875 60.050781 52.253906 " fill-opacity="1" fill-rule="nonzero"/><path fill="#6bb1d1" d="M 58.730469 53.691406 C 58.730469 53.691406 58.875 54.128906 58.574219 54.445312 C 58.316406 54.71875 57.714844 54.820312 57.53125 54.863281 C 57.347656 54.90625 56.503906 55.089844 56.289062 55.671875 C 56.042969 56.335938 56.203125 56.894531 56.855469 57.410156 C 57.355469 57.804688 57.878906 57.804688 58.003906 58.167969 C 58.132812 58.53125 57.867188 58.683594 57.570312 58.894531 C 57.289062 59.09375 56.847656 59.359375 56.894531 59.878906 C 56.945312 60.402344 57.652344 60.742188 58.007812 61.117188 C 58.3125 61.433594 58.183594 61.757812 58.226562 61.800781 C 58.273438 61.84375 58.386719 61.84375 58.414062 61.699219 C 58.4375 61.554688 58.464844 61.183594 58.21875 60.902344 C 57.917969 60.5625 57.546875 60.300781 57.398438 60.027344 C 57.285156 59.808594 57.425781 59.617188 57.625 59.527344 C 57.824219 59.441406 58.441406 59.0625 58.664062 58.636719 C 58.878906 58.222656 58.773438 57.777344 58.371094 57.453125 C 58.023438 57.175781 57.324219 57.089844 57.007812 56.601562 C 56.695312 56.109375 56.882812 55.609375 57.550781 55.410156 C 57.894531 55.304688 58.453125 55.277344 58.949219 54.925781 C 59.269531 54.699219 59.460938 54.277344 59.402344 53.875 C 59.339844 53.46875 59.066406 53.132812 58.816406 53.09375 C 58.566406 53.054688 58.15625 53.085938 58.03125 53.3125 C 57.988281 53.394531 58.128906 53.5625 58.238281 53.628906 C 58.429688 53.738281 58.730469 53.691406 58.730469 53.691406 " fill-opacity="1" fill-rule="nonzero"/><g clip-path="url(#20cf80c1dc)"><path fill="#6bb1d1" d="M 57.777344 51.636719 L 56.527344 51.636719 C 56.527344 51.636719 56.273438 51.339844 56.234375 51.109375 C 56.234375 51.109375 56.4375 50.863281 56.277344 50.4375 C 56.121094 50.011719 55.621094 49.75 54.859375 49.9375 C 54.09375 50.128906 53.667969 50.601562 53.429688 50.816406 C 53.195312 51.027344 52.566406 51.714844 51.882812 52.019531 C 51.300781 52.277344 51.046875 52.335938 51.046875 52.335938 C 51.046875 52.335938 51.164062 52.597656 51.667969 52.535156 C 51.667969 52.535156 51.722656 52.726562 52.25 52.730469 C 52.25 52.730469 52.382812 52.902344 52.859375 52.875 C 52.859375 52.875 53.125 52.988281 53.523438 52.945312 C 53.523438 52.945312 53.816406 53.042969 54.433594 52.824219 C 55.046875 52.601562 55.605469 52.210938 55.605469 52.210938 C 55.605469 52.210938 55.667969 52.429688 55.878906 52.574219 C 56.144531 52.753906 56.632812 52.699219 56.960938 52.667969 C 57.289062 52.636719 57.777344 52.453125 57.777344 52.453125 L 57.777344 51.636719 " fill-opacity="1" fill-rule="nonzero"/></g><g clip-path="url(#aa81f0a121)"><path fill="#6bb1d1" d="M 58.40625 50.5625 C 58.40625 50.910156 58.132812 51.191406 57.796875 51.191406 C 57.460938 51.191406 57.1875 50.910156 57.1875 50.5625 C 57.1875 50.21875 57.460938 49.9375 57.796875 49.9375 C 58.132812 49.9375 58.40625 50.21875 58.40625 50.5625 " fill-opacity="1" fill-rule="nonzero"/></g><g clip-path="url(#cd4017ebf4)"><path fill="#6bb1d1" d="M 57.902344 61.980469 L 57.796875 62.496094 L 57.683594 61.980469 L 57.644531 51.117188 L 57.945312 51.117188 L 57.902344 61.980469 " fill-opacity="1" fill-rule="nonzero"/></g><path fill="#6bb1d1" d="M 56.863281 53.691406 C 56.863281 53.691406 56.714844 54.128906 57.015625 54.445312 C 57.277344 54.71875 57.875 54.820312 58.058594 54.863281 C 58.242188 54.90625 59.089844 55.089844 59.304688 55.671875 C 59.546875 56.335938 59.390625 56.894531 58.738281 57.410156 C 58.234375 57.804688 57.714844 57.804688 57.585938 58.167969 C 57.457031 58.53125 57.726562 58.683594 58.019531 58.894531 C 58.304688 59.09375 58.746094 59.359375 58.695312 59.878906 C 58.648438 60.402344 57.941406 60.742188 57.582031 61.117188 C 57.28125 61.433594 57.410156 61.757812 57.363281 61.800781 C 57.320312 61.84375 57.207031 61.84375 57.179688 61.699219 C 57.152344 61.554688 57.125 61.183594 57.375 60.902344 C 57.675781 60.5625 58.046875 60.300781 58.191406 60.027344 C 58.304688 59.808594 58.167969 59.617188 57.96875 59.527344 C 57.769531 59.441406 57.148438 59.0625 56.925781 58.636719 C 56.710938 58.222656 56.816406 57.777344 57.222656 57.453125 C 57.566406 57.175781 58.269531 57.089844 58.582031 56.601562 C 58.894531 56.109375 58.710938 55.609375 58.039062 55.410156 C 57.699219 55.304688 57.140625 55.277344 56.644531 54.925781 C 56.324219 54.699219 56.128906 54.277344 56.191406 53.875 C 56.25 53.46875 56.527344 53.132812 56.777344 53.09375 C 57.023438 53.054688 57.433594 53.085938 57.558594 53.3125 C 57.605469 53.394531 57.464844 53.5625 57.351562 53.628906 C 57.164062 53.738281 56.863281 53.691406 56.863281 53.691406 " fill-opacity="1" fill-rule="nonzero"/><path fill="#0c2933" d="M 56.867188 53.304688 C 56.910156 53.28125 56.957031 53.273438 57.003906 53.28125 C 57.050781 53.289062 57.070312 53.21875 57.023438 53.207031 C 56.957031 53.195312 56.890625 53.203125 56.828125 53.238281 C 56.789062 53.257812 56.824219 53.324219 56.867188 53.304688 " fill-opacity="1" fill-rule="nonzero"/><path fill="#0c2933" d="M 58.703125 53.238281 C 58.640625 53.203125 58.578125 53.195312 58.507812 53.207031 C 58.460938 53.21875 58.480469 53.289062 58.527344 53.28125 C 58.574219 53.273438 58.621094 53.28125 58.664062 53.304688 C 58.707031 53.324219 58.746094 53.261719 58.703125 53.238281 " fill-opacity="1" fill-rule="nonzero"/><path fill="#0c2933" d="M 54.085938 51.355469 C 54.328125 52.035156 55.097656 52.050781 55.675781 51.90625 C 55.722656 51.894531 55.703125 51.824219 55.65625 51.832031 C 55.125 51.964844 54.382812 51.972656 54.15625 51.335938 C 54.140625 51.289062 54.070312 51.308594 54.085938 51.355469 " fill-opacity="1" fill-rule="nonzero"/><g clip-path="url(#68fe38323f)"><path fill="#0c2933" d="M 54.144531 51.375 C 53.886719 51.582031 53.507812 51.851562 53.222656 52.003906 C 52.734375 52.257812 52.394531 52.398438 51.921875 52.542969 C 51.867188 52.558594 51.792969 52.578125 51.714844 52.59375 C 51.675781 52.558594 51.667969 52.535156 51.667969 52.535156 C 51.667969 52.535156 51.664062 52.535156 51.664062 52.535156 C 51.753906 52.511719 51.84375 52.484375 51.898438 52.46875 C 52.367188 52.328125 52.707031 52.1875 53.1875 51.933594 C 53.46875 51.785156 53.84375 51.519531 54.097656 51.316406 L 54.144531 51.375 " fill-opacity="1" fill-rule="nonzero"/></g><path fill="#0c2933" d="M 54.554688 51.855469 C 54.367188 51.980469 53.996094 52.214844 53.648438 52.363281 C 53.152344 52.574219 52.804688 52.6875 52.328125 52.789062 C 52.277344 52.761719 52.253906 52.734375 52.25 52.730469 C 52.265625 52.726562 52.28125 52.722656 52.296875 52.71875 C 52.773438 52.617188 53.121094 52.503906 53.621094 52.292969 C 53.964844 52.148438 54.328125 51.914062 54.515625 51.789062 L 54.554688 51.855469 " fill-opacity="1" fill-rule="nonzero"/><path fill="#0c2933" d="M 55.007812 51.96875 C 54.703125 52.191406 54.429688 52.355469 54.167969 52.480469 C 53.726562 52.6875 53.40625 52.808594 53.003906 52.921875 C 52.929688 52.902344 52.878906 52.886719 52.863281 52.878906 C 53.320312 52.761719 53.65625 52.636719 54.136719 52.410156 C 54.394531 52.289062 54.664062 52.125 54.964844 51.90625 L 55.007812 51.96875 " fill-opacity="1" fill-rule="nonzero"/><path fill="#0c2933" d="M 55.6875 51.902344 C 55.449219 52.074219 54.824219 52.5 54.519531 52.640625 C 54.222656 52.78125 53.976562 52.882812 53.726562 52.96875 C 53.625 52.96875 53.5625 52.957031 53.535156 52.949219 C 53.847656 52.855469 54.128906 52.742188 54.492188 52.574219 C 54.789062 52.433594 55.410156 52.011719 55.644531 51.839844 L 55.6875 51.902344 " fill-opacity="1" fill-rule="nonzero"/><path fill="#0c2933" d="M 55.605469 52.210938 C 55.601562 52.210938 55.578125 52.230469 55.539062 52.253906 C 55.515625 52.15625 55.511719 52.015625 55.605469 51.871094 L 55.667969 51.914062 C 55.59375 52.023438 55.589844 52.128906 55.605469 52.210938 " fill-opacity="1" fill-rule="nonzero"/><path fill="#0c2933" d="M 57.722656 59.480469 C 57.800781 59.527344 57.867188 59.566406 57.914062 59.585938 L 57.914062 59.503906 C 57.867188 59.480469 57.8125 59.449219 57.75 59.410156 C 57.734375 59.402344 57.71875 59.390625 57.703125 59.382812 C 57.695312 59.378906 57.691406 59.371094 57.683594 59.367188 C 57.566406 59.292969 57.429688 59.195312 57.304688 59.085938 C 57.285156 59.101562 57.265625 59.117188 57.246094 59.136719 C 57.410156 59.277344 57.582031 59.398438 57.722656 59.480469 " fill-opacity="1" fill-rule="nonzero"/><path fill="#0c2933" d="M 57.660156 55.378906 L 57.660156 55.398438 C 57.679688 55.402344 57.695312 55.40625 57.714844 55.410156 C 57.789062 55.425781 57.863281 55.441406 57.929688 55.457031 L 57.929688 55.378906 C 57.886719 55.367188 57.84375 55.359375 57.796875 55.347656 C 57.792969 55.347656 57.785156 55.347656 57.78125 55.347656 C 57.742188 55.335938 57.703125 55.328125 57.660156 55.320312 C 57.425781 55.269531 57.160156 55.207031 56.898438 55.078125 C 56.871094 55.089844 56.84375 55.105469 56.816406 55.121094 C 57.09375 55.265625 57.375 55.335938 57.621094 55.390625 C 57.632812 55.386719 57.648438 55.382812 57.660156 55.378906 " fill-opacity="1" fill-rule="nonzero"/><path fill="#0c2933" d="M 57.796875 57.160156 C 57.839844 57.140625 57.878906 57.121094 57.921875 57.101562 L 57.921875 57.019531 C 57.847656 57.054688 57.769531 57.085938 57.695312 57.121094 C 57.5 57.203125 57.3125 57.28125 57.175781 57.394531 C 57.121094 57.4375 57.070312 57.484375 57.027344 57.53125 C 57.046875 57.546875 57.070312 57.558594 57.09375 57.570312 C 57.132812 57.53125 57.171875 57.492188 57.222656 57.453125 C 57.367188 57.335938 57.578125 57.253906 57.796875 57.160156 " fill-opacity="1" fill-rule="nonzero"/><path fill="#0c2933" d="M 57.796875 60.484375 C 57.835938 60.445312 57.871094 60.410156 57.910156 60.375 L 57.910156 60.269531 C 57.839844 60.335938 57.765625 60.410156 57.6875 60.480469 C 57.683594 60.484375 57.683594 60.488281 57.675781 60.492188 C 57.613281 60.550781 57.550781 60.613281 57.484375 60.675781 C 57.503906 60.691406 57.523438 60.707031 57.542969 60.722656 C 57.628906 60.640625 57.714844 60.5625 57.796875 60.484375 " fill-opacity="1" fill-rule="nonzero"/><path fill="#0c2933" d="M 58.089844 54.792969 L 58.074219 54.789062 C 58.054688 54.785156 58.027344 54.777344 58 54.773438 C 57.984375 54.769531 57.96875 54.765625 57.953125 54.761719 C 57.945312 54.765625 57.9375 54.765625 57.933594 54.769531 L 57.933594 54.757812 C 57.851562 54.742188 57.757812 54.71875 57.65625 54.6875 L 57.65625 54.769531 C 57.707031 54.78125 57.753906 54.792969 57.796875 54.804688 C 57.820312 54.808594 57.839844 54.816406 57.859375 54.820312 C 57.886719 54.824219 57.910156 54.832031 57.933594 54.835938 C 57.984375 54.847656 58.027344 54.855469 58.058594 54.863281 C 58.15625 54.886719 58.425781 54.945312 58.695312 55.078125 C 58.722656 55.0625 58.75 55.050781 58.777344 55.035156 C 58.585938 54.933594 58.359375 54.855469 58.089844 54.792969 " fill-opacity="1" fill-rule="nonzero"/><path fill="#0c2933" d="M 57.917969 57.851562 C 57.902344 57.859375 57.882812 57.867188 57.867188 57.878906 C 57.867188 57.878906 57.867188 57.878906 57.863281 57.878906 C 57.839844 57.890625 57.816406 57.90625 57.796875 57.921875 C 57.746094 57.953125 57.703125 57.988281 57.667969 58.027344 L 57.667969 58.160156 C 57.710938 58.078125 57.777344 58.015625 57.871094 57.960938 C 57.945312 57.917969 58.039062 57.875 58.140625 57.832031 C 58.269531 57.773438 58.410156 57.714844 58.550781 57.628906 C 58.535156 57.609375 58.519531 57.589844 58.5 57.570312 C 58.289062 57.695312 58.082031 57.769531 57.917969 57.851562 " fill-opacity="1" fill-rule="nonzero"/><path fill="#0c2933" d="M 57.90625 60.835938 C 57.875 60.863281 57.839844 60.886719 57.808594 60.914062 C 57.804688 60.917969 57.800781 60.921875 57.796875 60.925781 C 57.753906 60.957031 57.714844 60.992188 57.679688 61.023438 L 57.679688 61.128906 C 57.746094 61.0625 57.824219 60.996094 57.90625 60.933594 C 57.945312 60.902344 57.984375 60.871094 58.023438 60.839844 C 58.050781 60.820312 58.074219 60.796875 58.101562 60.777344 C 58.085938 60.757812 58.066406 60.742188 58.046875 60.722656 C 58 60.761719 57.953125 60.796875 57.90625 60.835938 " fill-opacity="1" fill-rule="nonzero"/><path fill="#0c2933" d="M 58.0625 58.832031 C 58.042969 58.816406 58.023438 58.804688 58 58.789062 C 57.972656 58.769531 57.941406 58.746094 57.914062 58.726562 C 57.914062 58.726562 57.910156 58.722656 57.910156 58.722656 C 57.894531 58.710938 57.878906 58.699219 57.867188 58.691406 C 57.777344 58.625 57.710938 58.5625 57.671875 58.496094 L 57.671875 58.617188 C 57.707031 58.65625 57.75 58.695312 57.796875 58.730469 C 57.832031 58.761719 57.871094 58.789062 57.910156 58.816406 C 57.910156 58.816406 57.914062 58.816406 57.914062 58.820312 C 57.949219 58.84375 57.984375 58.867188 58.019531 58.894531 C 58.101562 58.953125 58.195312 59.015625 58.289062 59.085938 C 58.304688 59.070312 58.324219 59.054688 58.34375 59.035156 C 58.269531 58.976562 58.195312 58.925781 58.128906 58.878906 C 58.105469 58.863281 58.082031 58.847656 58.0625 58.832031 " fill-opacity="1" fill-rule="nonzero"/><path fill="#0c2933" d="M 57.796875 51.191406 C 57.746094 51.191406 57.695312 51.183594 57.644531 51.171875 L 57.644531 51.25 C 57.695312 51.261719 57.746094 51.269531 57.796875 51.269531 C 57.847656 51.269531 57.898438 51.261719 57.945312 51.25 L 57.945312 51.171875 C 57.898438 51.183594 57.847656 51.191406 57.796875 51.191406 " fill-opacity="1" fill-rule="nonzero"/><path fill="#0c2933" d="M 57.574219 51.636719 L 57.578125 52.519531 C 57.601562 52.511719 57.628906 52.503906 57.648438 52.496094 L 57.648438 51.636719 Z M 57.945312 51.636719 L 57.941406 52.496094 C 57.964844 52.503906 57.988281 52.511719 58.015625 52.519531 L 58.019531 51.636719 L 57.945312 51.636719 " fill-opacity="1" fill-rule="nonzero"/><g fill="#ffffff" fill-opacity="1"><g transform="translate(23.421133, 91.402839)"><g><path d="M 3.703125 -1.125 L 5.078125 0.296875 L 4.8125 0.546875 L 3.4375 -0.875 L 1.234375 1.265625 L 0.59375 0.609375 L 5.0625 -3.734375 L 7.625 -1.09375 L 7.171875 -0.640625 L 6.171875 -2.09375 C 5.953125 -2.320312 5.675781 -2.535156 5.34375 -2.734375 Z M 3.703125 -1.125 "/></g></g></g><g fill="#ffffff" fill-opacity="1"><g transform="translate(26.820519, 94.952921)"><g><path d="M 8.15625 -1.5 L 5.78125 1.5 C 5.414062 1.957031 5.09375 2.265625 4.8125 2.421875 C 4.6875 2.492188 4.523438 2.554688 4.328125 2.609375 C 4.128906 2.660156 3.9375 2.675781 3.75 2.65625 C 3.28125 2.582031 2.800781 2.347656 2.3125 1.953125 C 1.09375 0.992188 0.976562 -0.101562 1.96875 -1.34375 L 4.421875 -4.453125 L 5.1875 -3.859375 L 2.6875 -0.703125 C 2.570312 -0.554688 2.476562 -0.4375 2.40625 -0.34375 C 2.34375 -0.25 2.269531 -0.101562 2.1875 0.09375 C 2.101562 0.289062 2.0625 0.46875 2.0625 0.625 C 2.070312 0.78125 2.132812 0.96875 2.25 1.1875 C 2.363281 1.414062 2.535156 1.625 2.765625 1.8125 C 3.691406 2.539062 4.546875 2.410156 5.328125 1.421875 L 7.84375 -1.75 Z M 8.15625 -1.5 "/></g></g></g><g fill="#ffffff" fill-opacity="1"><g transform="translate(32.024234, 98.995715)"><g><path d="M 0.734375 0.421875 L 3.890625 -4.953125 L 7.140625 -3.03125 L 6.734375 -2.53125 L 5.390625 -3.671875 C 5.117188 -3.828125 4.796875 -3.957031 4.421875 -4.0625 L 3.25 -2.078125 L 5.046875 -1.03125 L 4.875 -0.71875 L 3.078125 -1.765625 L 1.6875 0.59375 L 4.34375 1.8125 L 3.953125 2.3125 Z M 0.734375 0.421875 "/></g></g></g><g fill="#ffffff" fill-opacity="1"><g transform="translate(36.946981, 101.894196)"><g><path d="M 5.125 2.203125 L 4.96875 2.140625 L 3.109375 -4.1875 L 3.078125 -4.1875 L 1.171875 0.484375 L 0.78125 0.3125 L 3.140625 -5.453125 L 3.796875 -5.1875 L 5.390625 0.359375 L 5.421875 0.375 L 7.140625 -3.8125 L 7.53125 -3.65625 Z M 5.125 2.203125 "/></g></g></g><g fill="#ffffff" fill-opacity="1"><g transform="translate(43.303496, 104.401796)"><g><path d="M 2.875 0.734375 L 2 0.5 L 3.421875 -5.109375 C 3.222656 -5.203125 3.019531 -5.273438 2.8125 -5.328125 L 1.515625 -5.359375 L 1.625 -6.03125 L 6.3125 -4.84375 L 6.09375 -4.1875 L 4.9375 -4.78125 C 4.738281 -4.832031 4.523438 -4.863281 4.296875 -4.875 Z M 2.875 0.734375 "/></g></g></g><g fill="#ffffff" fill-opacity="1"><g transform="translate(48.546199, 105.709681)"><g><path d="M 0.84375 0.109375 L 1.59375 -6.078125 L 5.34375 -5.625 L 5.171875 -5 L 3.484375 -5.5 C 3.171875 -5.539062 2.820312 -5.53125 2.4375 -5.46875 L 2.171875 -3.1875 L 4.234375 -2.9375 L 4.1875 -2.59375 L 2.125 -2.84375 L 1.796875 -0.125 L 4.71875 -0.0625 L 4.546875 0.546875 Z M 0.84375 0.109375 "/></g></g></g><g fill="#ffffff" fill-opacity="1"><g transform="translate(54.068558, 106.302562)"><g/></g></g><g fill="#ffffff" fill-opacity="1"><g transform="translate(56.747688, 106.478405)"><g><path d="M 0.84375 -0.0625 L 0.328125 -6.28125 L 2.09375 -6.4375 C 2.832031 -6.5 3.515625 -6.390625 4.140625 -6.109375 C 4.472656 -5.984375 4.769531 -5.804688 5.03125 -5.578125 C 5.289062 -5.347656 5.503906 -5.050781 5.671875 -4.6875 C 5.847656 -4.320312 5.957031 -3.90625 6 -3.4375 C 6.050781 -2.789062 5.925781 -2.222656 5.625 -1.734375 C 5.09375 -0.835938 4.144531 -0.335938 2.78125 -0.234375 Z M 2.5625 -0.53125 C 3.363281 -0.59375 3.988281 -0.878906 4.4375 -1.390625 C 4.882812 -1.910156 5.070312 -2.617188 5 -3.515625 C 4.9375 -4.210938 4.691406 -4.789062 4.265625 -5.25 C 3.847656 -5.71875 3.328125 -6.015625 2.703125 -6.140625 C 2.148438 -6.085938 1.679688 -5.976562 1.296875 -5.8125 L 1.734375 -0.546875 C 1.929688 -0.503906 2.207031 -0.5 2.5625 -0.53125 Z M 2.5625 -0.53125 "/></g></g></g><g fill="#ffffff" fill-opacity="1"><g transform="translate(63.803652, 105.819378)"><g><path d="M 0.828125 -0.1875 L -0.578125 -6.265625 L 3.09375 -7.125 L 3.15625 -6.46875 L 1.375 -6.359375 C 1.070312 -6.285156 0.753906 -6.160156 0.421875 -5.984375 L 0.9375 -3.734375 L 2.96875 -4.203125 L 3.0625 -3.859375 L 1.03125 -3.390625 L 1.640625 -0.71875 L 4.40625 -1.65625 L 4.453125 -1.03125 Z M 0.828125 -0.1875 "/></g></g></g><g fill="#ffffff" fill-opacity="1"><g transform="translate(69.195595, 104.486613)"><g/></g></g><g fill="#ffffff" fill-opacity="1"><g transform="translate(71.723282, 103.716771)"><g><path d="M 2.703125 -1.03125 L -2.453125 -5.734375 L -1.5 -6.15625 L 2.453125 -2.328125 L 2.078125 -7.75 L 2.515625 -7.9375 L 2.828125 -1.09375 Z M 2.703125 -1.03125 "/></g></g></g><g fill="#ffffff" fill-opacity="1"><g transform="translate(77.080074, 101.238761)"><g><path d="M -1.578125 -6.265625 L 1.5 -0.84375 L 0.734375 -0.421875 L -2.34375 -5.84375 Z M -1.578125 -6.265625 "/></g></g></g><g fill="#ffffff" fill-opacity="1"><g transform="translate(79.645257, 99.887894)"><g><path d="M 0.6875 -0.5 L -2.984375 -5.53125 L -1.546875 -6.578125 C -0.953125 -7.015625 -0.320312 -7.273438 0.34375 -7.359375 C 0.695312 -7.429688 1.039062 -7.4375 1.375 -7.375 C 1.71875 -7.320312 2.054688 -7.179688 2.390625 -6.953125 C 2.734375 -6.734375 3.039062 -6.4375 3.3125 -6.0625 C 3.695312 -5.53125 3.890625 -4.976562 3.890625 -4.40625 C 3.898438 -3.375 3.359375 -2.453125 2.265625 -1.640625 Z M 1.921875 -1.78125 C 2.566406 -2.257812 2.945312 -2.832031 3.0625 -3.5 C 3.175781 -4.175781 2.960938 -4.878906 2.421875 -5.609375 C 2.015625 -6.171875 1.503906 -6.539062 0.890625 -6.71875 C 0.285156 -6.894531 -0.300781 -6.875 -0.875 -6.65625 C -1.320312 -6.332031 -1.671875 -5.992188 -1.921875 -5.640625 L 1.1875 -1.375 C 1.382812 -1.4375 1.628906 -1.570312 1.921875 -1.78125 Z M 1.921875 -1.78125 "/></g></g></g><g fill="#ffffff" fill-opacity="1"><g transform="translate(85.354114, 95.646968)"><g><path d="M 0.0625 -0.0625 L -2.453125 -6.5625 L -2.359375 -6.65625 L 4.125 -4.109375 L 3.390625 -3.390625 L 1.71875 -4.09375 L -0.265625 -2.125 L 0.4375 -0.4375 Z M -0.421875 -2.46875 L 1.359375 -4.234375 L -1.671875 -5.515625 Z M -0.421875 -2.46875 "/></g></g></g></svg>