<svg xmlns="http://www.w3.org/2000/svg" xmlns:xlink="http://www.w3.org/1999/xlink" width="500" zoomAndPan="magnify" viewBox="0 0 375 374.999991" height="500" preserveAspectRatio="xMidYMid meet" version="1.0"><defs><clipPath id="d03cc90b40"><path d="M 77.253906 77.253906 L 297.753906 77.253906 L 297.753906 297 L 77.253906 297 Z M 77.253906 77.253906 " clip-rule="nonzero"/></clipPath><clipPath id="43744f0adb"><path d="M 77.253906 77.253906 L 188 77.253906 L 188 297 L 77.253906 297 Z M 77.253906 77.253906 " clip-rule="nonzero"/></clipPath><clipPath id="c66fa287b1"><path d="M 77.253906 77.253906 L 188 77.253906 L 188 297 L 77.253906 297 Z M 77.253906 77.253906 " clip-rule="nonzero"/></clipPath></defs><g clip-path="url(#d03cc90b40)"><path fill="#8bc94d" d="M 187.503906 76.691406 C 126.925781 76.691406 77.820312 125.800781 77.820312 186.378906 C 77.820312 206.496094 83.242188 225.371094 92.707031 241.59375 L 78.25 284.960938 C 77.242188 287.992188 78.03125 291.335938 80.289062 293.597656 C 82.550781 295.855469 85.890625 296.644531 88.925781 295.636719 L 132.292969 281.179688 C 148.515625 290.644531 167.386719 296.066406 187.503906 296.066406 C 248.085938 296.066406 297.191406 246.960938 297.191406 186.378906 C 297.191406 125.800781 248.085938 76.691406 187.503906 76.691406 Z M 187.503906 76.691406 " fill-opacity="1" fill-rule="nonzero"/><path fill="#eceff1" d="M 187.503906 93.566406 C 136.246094 93.566406 94.695312 135.121094 94.695312 186.378906 C 94.695312 204.65625 99.96875 221.675781 109.074219 236.027344 C 110.433594 238.171875 110.757812 240.8125 109.953125 243.21875 L 99.597656 274.289062 L 130.667969 263.933594 C 133.074219 263.128906 135.714844 263.453125 137.855469 264.8125 C 152.210938 273.917969 169.230469 279.191406 187.503906 279.191406 C 238.765625 279.191406 280.316406 237.640625 280.316406 186.378906 C 280.316406 135.121094 238.765625 93.566406 187.503906 93.566406 Z M 77.820312 186.378906 C 77.820312 125.800781 126.925781 76.691406 187.503906 76.691406 C 248.085938 76.691406 297.191406 125.800781 297.191406 186.378906 C 297.191406 246.960938 248.085938 296.066406 187.503906 296.066406 C 167.386719 296.066406 148.515625 290.644531 132.292969 281.179688 L 88.925781 295.636719 C 85.890625 296.644531 82.550781 295.855469 80.289062 293.597656 C 78.03125 291.335938 77.242188 287.992188 78.25 284.960938 L 92.707031 241.59375 C 83.242188 225.371094 77.820312 206.496094 77.820312 186.378906 Z M 77.820312 186.378906 " fill-opacity="1" fill-rule="evenodd"/></g><path fill="#eceff1" d="M 150.941406 130.128906 C 150.941406 125.472656 154.722656 121.691406 159.378906 121.691406 L 198.753906 121.691406 C 218.949219 121.691406 235.316406 138.0625 235.316406 158.253906 C 235.316406 178.449219 218.949219 194.816406 198.753906 194.816406 L 159.378906 194.816406 C 154.722656 194.816406 150.941406 191.039062 150.941406 186.378906 Z M 167.816406 138.566406 L 167.816406 177.941406 L 198.753906 177.941406 C 209.628906 177.941406 218.441406 169.128906 218.441406 158.253906 C 218.441406 147.382812 209.628906 138.566406 198.753906 138.566406 Z M 167.816406 138.566406 " fill-opacity="1" fill-rule="evenodd"/><path fill="#eceff1" d="M 150.941406 186.378906 C 150.941406 181.722656 154.722656 177.941406 159.378906 177.941406 L 198.753906 177.941406 C 218.949219 177.941406 235.316406 194.3125 235.316406 214.503906 C 235.316406 234.699219 218.949219 251.066406 198.753906 251.066406 L 159.378906 251.066406 C 154.722656 251.066406 150.941406 247.289062 150.941406 242.628906 Z M 167.816406 194.816406 L 167.816406 234.191406 L 198.753906 234.191406 C 209.628906 234.191406 218.441406 225.378906 218.441406 214.503906 C 218.441406 203.632812 209.628906 194.816406 198.753906 194.816406 Z M 167.816406 194.816406 " fill-opacity="1" fill-rule="evenodd"/><g clip-path="url(#43744f0adb)"><path fill="#7db545" d="M 187.503906 76.691406 L 187.503906 296.066406 C 167.386719 296.066406 148.515625 290.644531 132.292969 281.179688 L 88.925781 295.636719 C 85.890625 296.644531 82.550781 295.855469 80.289062 293.597656 C 78.03125 291.335938 77.242188 287.992188 78.25 284.960938 L 92.707031 241.59375 C 83.242188 225.371094 77.820312 206.496094 77.820312 186.378906 C 77.820312 125.800781 126.925781 76.691406 187.503906 76.691406 Z M 187.503906 76.691406 " fill-opacity="1" fill-rule="evenodd"/></g><path fill="#d4d6d8" d="M 187.503906 177.941406 L 159.378906 177.941406 C 154.722656 177.941406 150.941406 181.722656 150.941406 186.378906 L 150.941406 242.628906 C 150.941406 247.289062 154.722656 251.066406 159.378906 251.066406 L 187.503906 251.066406 L 187.503906 234.191406 L 167.816406 234.191406 L 167.816406 194.816406 L 187.503906 194.816406 Z M 187.503906 177.941406 " fill-opacity="1" fill-rule="evenodd"/><path fill="#d4d6d8" d="M 187.503906 121.691406 L 159.378906 121.691406 C 154.722656 121.691406 150.941406 125.472656 150.941406 130.128906 L 150.941406 186.378906 C 150.941406 191.039062 154.722656 194.816406 159.378906 194.816406 L 187.503906 194.816406 L 187.503906 177.941406 L 167.816406 177.941406 L 167.816406 138.566406 L 187.503906 138.566406 Z M 187.503906 121.691406 " fill-opacity="1" fill-rule="evenodd"/><g clip-path="url(#c66fa287b1)"><path fill="#d4d6d8" d="M 94.691406 186.378906 C 94.691406 135.121094 136.246094 93.566406 187.503906 93.566406 L 187.503906 76.691406 C 126.925781 76.691406 77.820312 125.800781 77.820312 186.378906 C 77.820312 206.496094 83.242188 225.371094 92.707031 241.59375 L 78.25 284.960938 C 77.242188 287.992188 78.03125 291.335938 80.289062 293.597656 C 80.570312 293.878906 80.871094 294.140625 81.183594 294.375 C 83.378906 296.023438 86.269531 296.519531 88.921875 295.636719 M 88.925781 295.636719 L 132.292969 281.179688 C 134.320312 282.363281 136.390625 283.480469 138.5 284.535156 C 153.253906 291.914062 169.902344 296.066406 187.503906 296.066406 L 187.503906 279.191406 C 169.230469 279.191406 152.210938 273.917969 137.855469 264.8125 C 135.714844 263.453125 133.074219 263.128906 130.667969 263.933594 L 99.597656 274.289062 L 109.953125 243.21875 C 110.757812 240.8125 110.433594 238.171875 109.074219 236.027344 C 99.96875 221.675781 94.691406 204.65625 94.691406 186.378906 " fill-opacity="1" fill-rule="evenodd"/></g></svg>